<svg width="435" height="189" viewBox="0 0 435 189" fill="none" xmlns="http://www.w3.org/2000/svg">
<line opacity="0.64" x1="25" y1="5.5" x2="435" y2="5.50004" stroke="#858585" stroke-dasharray="1 6"/>
<path d="M2.94434 9.11719C4.35547 9.11719 5.39062 8.24805 5.39062 7.07129V7.06152C5.39062 6.06055 4.69238 5.4209 3.66699 5.33301V5.31348C4.5459 5.12793 5.16113 4.53223 5.16113 3.66309V3.65332C5.16113 2.58398 4.27734 1.83691 2.93457 1.83691C1.61621 1.83691 0.708008 2.60352 0.595703 3.75098L0.59082 3.7998H1.43555L1.44043 3.75098C1.51367 3.03809 2.10449 2.59863 2.93457 2.59863C3.79395 2.59863 4.27734 3.02344 4.27734 3.76074V3.77051C4.27734 4.47363 3.69141 4.99121 2.85156 4.99121H2.00684V5.7334H2.89062C3.87695 5.7334 4.49707 6.2168 4.49707 7.08105V7.09082C4.49707 7.83789 3.86719 8.35547 2.94434 8.35547C2.00684 8.35547 1.37207 7.87695 1.29883 7.18359L1.29395 7.13477H0.449219L0.454102 7.19336C0.546875 8.30664 1.48926 9.11719 2.94434 9.11719ZM8.94531 9.11719C10.5664 9.11719 11.5381 7.71582 11.5381 5.47949V5.46973C11.5381 3.2334 10.5664 1.83691 8.94531 1.83691C7.32422 1.83691 6.3623 3.2334 6.3623 5.46973V5.47949C6.3623 7.71582 7.32422 9.11719 8.94531 9.11719ZM8.94531 8.35059C7.87109 8.35059 7.24609 7.24707 7.24609 5.47949V5.46973C7.24609 3.70215 7.87109 2.6084 8.94531 2.6084C10.0195 2.6084 10.6543 3.70215 10.6543 5.46973V5.47949C10.6543 7.24707 10.0195 8.35059 8.94531 8.35059ZM12.6025 9H13.4521V7.08594L13.9258 6.63184L15.8105 9H16.7969L14.5264 6.11426L16.7285 3.92188H15.6982L13.4717 6.16309H13.4521V1.9541H12.6025V9Z" fill="black" fill-opacity="0.48"/>
<line opacity="0.64" x1="25" y1="35.3334" x2="435" y2="35.3334" stroke="#858585" stroke-dasharray="1 6"/>
<path d="M0.571289 38.8334H5.21973V38.0521H1.77734V38.0326L3.45215 36.3138C4.74609 34.9906 5.10254 34.4095 5.10254 33.6381V33.6283C5.10254 32.5248 4.16992 31.6703 2.89551 31.6703C1.58203 31.6703 0.527344 32.5736 0.527344 33.7943V33.8236H1.37695V33.7992C1.37695 33.0424 2.03125 32.4369 2.91016 32.4369C3.67676 32.4369 4.21875 32.9545 4.22363 33.6722V33.682C4.22363 34.2679 4.00391 34.6488 3.05176 35.64L0.571289 38.2279V38.8334ZM8.65723 38.9506C10.1221 38.9506 11.1621 37.9642 11.167 36.5531V36.5433C11.167 35.1908 10.1904 34.2094 8.83789 34.2094C8.1543 34.2094 7.56836 34.4633 7.23633 34.9369H7.2168L7.45605 32.5687H10.7666V31.7875H6.7334L6.37207 35.806H7.14844C7.24121 35.6449 7.35352 35.5082 7.48047 35.391C7.79297 35.1078 8.20312 34.9662 8.68164 34.9662C9.61426 34.9662 10.2832 35.6302 10.2881 36.558V36.5677C10.2881 37.515 9.62402 38.1791 8.66699 38.1791C7.82227 38.1791 7.19727 37.6469 7.10938 36.9486L7.10449 36.9095H6.24023L6.24512 36.9633C6.34766 38.1107 7.30957 38.9506 8.65723 38.9506ZM12.1338 38.8334H12.9834V36.9193L13.457 36.4652L15.3418 38.8334H16.3281L14.0576 35.9476L16.2598 33.7552H15.2295L13.0029 35.9965H12.9834V31.7875H12.1338V38.8334Z" fill="black" fill-opacity="0.48"/>
<line opacity="0.64" x1="25" y1="65.1666" x2="435" y2="65.1667" stroke="#858585" stroke-dasharray="1 6"/>
<path d="M0.571289 68.6666H5.21973V67.8854H1.77734V67.8658L3.45215 66.1471C4.74609 64.8239 5.10254 64.2428 5.10254 63.4713V63.4615C5.10254 62.358 4.16992 61.5035 2.89551 61.5035C1.58203 61.5035 0.527344 62.4069 0.527344 63.6276V63.6569H1.37695V63.6324C1.37695 62.8756 2.03125 62.2701 2.91016 62.2701C3.67676 62.2701 4.21875 62.7877 4.22363 63.5055V63.5153C4.22363 64.1012 4.00391 64.4821 3.05176 65.4733L0.571289 68.0612V68.6666ZM8.69141 68.7838C10.3125 68.7838 11.2842 67.3824 11.2842 65.1461V65.1364C11.2842 62.9 10.3125 61.5035 8.69141 61.5035C7.07031 61.5035 6.1084 62.9 6.1084 65.1364V65.1461C6.1084 67.3824 7.07031 68.7838 8.69141 68.7838ZM8.69141 68.0172C7.61719 68.0172 6.99219 66.9137 6.99219 65.1461V65.1364C6.99219 63.3688 7.61719 62.275 8.69141 62.275C9.76562 62.275 10.4004 63.3688 10.4004 65.1364V65.1461C10.4004 66.9137 9.76562 68.0172 8.69141 68.0172ZM12.3486 68.6666H13.1982V66.7526L13.6719 66.2985L15.5566 68.6666H16.543L14.2725 65.7809L16.4746 63.5885H15.4443L13.2178 65.8297H13.1982V61.6207H12.3486V68.6666Z" fill="black" fill-opacity="0.48"/>
<line opacity="0.64" x1="25" y1="95" x2="435" y2="95" stroke="#858585" stroke-dasharray="1 6"/>
<path d="M2.36816 98.5H3.21777V91.4541H2.3584L0.483398 92.8018V93.6855L2.34863 92.3867H2.36816V98.5ZM7.42676 98.6172C8.8916 98.6172 9.93164 97.6309 9.93652 96.2197V96.21C9.93652 94.8574 8.95996 93.876 7.60742 93.876C6.92383 93.876 6.33789 94.1299 6.00586 94.6035H5.98633L6.22559 92.2354H9.53613V91.4541H5.50293L5.1416 95.4727H5.91797C6.01074 95.3115 6.12305 95.1748 6.25 95.0576C6.5625 94.7744 6.97266 94.6328 7.45117 94.6328C8.38379 94.6328 9.05273 95.2969 9.05762 96.2246V96.2344C9.05762 97.1816 8.39355 97.8457 7.43652 97.8457C6.5918 97.8457 5.9668 97.3135 5.87891 96.6152L5.87402 96.5762H5.00977L5.01465 96.6299C5.11719 97.7773 6.0791 98.6172 7.42676 98.6172ZM10.9033 98.5H11.7529V96.5859L12.2266 96.1318L14.1113 98.5H15.0977L12.8271 95.6143L15.0293 93.4219H13.999L11.7725 95.6631H11.7529V91.4541H10.9033V98.5Z" fill="black" fill-opacity="0.48"/>
<line opacity="0.64" x1="25" y1="124.833" x2="435" y2="124.833" stroke="#858585" stroke-dasharray="1 6"/>
<path d="M2.36816 128.333H3.21777V121.287H2.3584L0.483398 122.635V123.519L2.34863 122.22H2.36816V128.333ZM7.46094 128.451C9.08203 128.451 10.0537 127.049 10.0537 124.813V124.803C10.0537 122.567 9.08203 121.17 7.46094 121.17C5.83984 121.17 4.87793 122.567 4.87793 124.803V124.813C4.87793 127.049 5.83984 128.451 7.46094 128.451ZM7.46094 127.684C6.38672 127.684 5.76172 126.58 5.76172 124.813V124.803C5.76172 123.036 6.38672 121.942 7.46094 121.942C8.53516 121.942 9.16992 123.036 9.16992 124.803V124.813C9.16992 126.58 8.53516 127.684 7.46094 127.684ZM11.1182 128.333H11.9678V126.419L12.4414 125.965L14.3262 128.333H15.3125L13.042 125.448L15.2441 123.255H14.2139L11.9873 125.496H11.9678V121.287H11.1182V128.333Z" fill="black" fill-opacity="0.48"/>
<line opacity="0.64" x1="25" y1="154.667" x2="435" y2="154.667" stroke="#858585" stroke-dasharray="1 6"/>
<path d="M2.99316 158.284C4.45801 158.284 5.49805 157.297 5.50293 155.886V155.877C5.50293 154.524 4.52637 153.543 3.17383 153.543C2.49023 153.543 1.9043 153.797 1.57227 154.27H1.55273L1.79199 151.902H5.10254V151.121H1.06934L0.708008 155.139H1.48438C1.57715 154.978 1.68945 154.841 1.81641 154.724C2.12891 154.441 2.53906 154.299 3.01758 154.299C3.9502 154.299 4.61914 154.964 4.62402 155.891V155.901C4.62402 156.848 3.95996 157.512 3.00293 157.512C2.1582 157.512 1.5332 156.98 1.44531 156.282L1.44043 156.243H0.576172L0.581055 156.297C0.683594 157.444 1.64551 158.284 2.99316 158.284ZM6.46973 158.167H7.31934V156.253L7.79297 155.798L9.67773 158.167H10.6641L8.39355 155.281L10.5957 153.089H9.56543L7.33887 155.33H7.31934V151.121H6.46973V158.167Z" fill="black" fill-opacity="0.48"/>
<line opacity="0.64" x1="25" y1="184.5" x2="435" y2="184.5" stroke="#858585" stroke-dasharray="1 6"/>
<path d="M3.02734 188.117C4.64844 188.117 5.62012 186.716 5.62012 184.479V184.47C5.62012 182.233 4.64844 180.837 3.02734 180.837C1.40625 180.837 0.444336 182.233 0.444336 184.47V184.479C0.444336 186.716 1.40625 188.117 3.02734 188.117ZM3.02734 187.351C1.95312 187.351 1.32812 186.247 1.32812 184.479V184.47C1.32812 182.702 1.95312 181.608 3.02734 181.608C4.10156 181.608 4.73633 182.702 4.73633 184.47V184.479C4.73633 186.247 4.10156 187.351 3.02734 187.351Z" fill="black" fill-opacity="0.48"/>
</svg>
